<svg width="24" height="24" viewBox="0 0 24 24" fill="none" xmlns="http://www.w3.org/2000/svg">
<path d="M9.40012 17.2929C9.21262 17.4806 9.10733 17.735 9.10742 18.0003C9.10752 18.2655 9.21298 18.5199 9.40062 18.7074C9.58826 18.8949 9.84271 19.0002 10.108 19.0001C10.3732 19 10.6276 18.8946 10.8151 18.7069L15.4001 14.1209C15.9625 13.5583 16.2785 12.7954 16.2785 11.9999C16.2785 11.2044 15.9625 10.4415 15.4001 9.87891L10.8111 5.29292C10.6207 5.12075 10.3714 5.02841 10.1148 5.035C9.85817 5.04159 9.61391 5.14661 9.43259 5.32831C9.25127 5.51002 9.14677 5.75449 9.14073 6.01112C9.13468 6.26775 9.22756 6.51687 9.40012 6.70691L13.9861 11.2929C14.1736 11.4804 14.2789 11.7348 14.2789 11.9999C14.2789 12.2651 14.1736 12.5194 13.9861 12.7069L9.40012 17.2929Z" fill="#83898F"/>
</svg>
